<?xml version="1.0" encoding="UTF-8"?><svg id="Laag_2" xmlns="http://www.w3.org/2000/svg" viewBox="0 0 424.03 23.28"><defs><style>.cls-1{opacity:.75;}.cls-1,.cls-2,.cls-3{fill-rule:evenodd;}.cls-4{opacity:.8;}.cls-2{opacity:.65;}</style></defs><g id="Samenstellen_Tests"><g><polygon class="cls-2" points="93.65 22.2 87.06 22.2 87.06 11.5 86.29 11.5 86.29 11.37 85.65 11.37 85.65 11.5 84.15 11.5 84.15 22.2 83.66 22.2 83.66 16.51 80.14 16.51 80.14 22.2 78.17 22.2 78.17 18.12 73.37 18.12 73.37 21.3 84.11 21.3 76.58 21.3 70.35 21.3 70.35 19.03 67.7 19.03 67.7 20.85 62.83 20.85 62.83 20.58 49.69 20.58 49.69 20.29 49.07 20.29 49.07 21.7 47.84 21.7 47.84 20.57 44.34 20.57 44.34 21.93 43.34 21.93 43.34 21.3 40.56 21.3 40.56 21.86 39.84 21.86 39.84 20.57 38.71 20.57 38.71 21.36 36.67 21.36 36.67 22.06 36.67 23.15 106.03 22.87 106.03 22.2 105.5 22.2 105.51 15.97 102.92 15.97 102.88 21.93 93.65 22.2"/><polygon class="cls-1" points="0 23.01 11.28 22.87 11.28 20.58 6.47 20.58 6.47 21.93 4.68 21.93 4.68 18.99 2.83 18.99 2.83 22.2 0 22.2 0 23.01"/><g><rect x="50.88" y="6.12" width="1.33" height="5.05"/><g><polygon points="48.89 20.67 48.89 20.87 49.09 20.87 49.09 21.43 51.39 21.43 51.49 21.43 51.49 21.74 60.56 21.74 60.56 17.07 57.31 17.07 57.31 18.42 52.41 18.42 52.41 11.22 52.21 11.22 50.93 11.22 50.83 11.22 50.83 11.17 50.83 5.71 48.73 5.71 48.73 11.73 49.09 11.73 49.09 11.99 48.89 11.99 48.89 12.19 49.09 12.19 49.09 12.5 48.89 12.5 48.89 12.7 49.09 12.7 49.09 13.01 48.89 13.01 48.89 13.21 49.09 13.21 49.09 13.52 48.89 13.52 48.89 13.72 49.09 13.72 49.09 14.03 48.89 14.03 48.89 14.23 49.09 14.23 49.09 14.54 48.89 14.54 48.89 14.74 49.09 14.74 49.09 15.05 48.89 15.05 48.89 15.26 49.09 15.26 49.09 15.56 48.89 15.56 48.89 15.77 49.09 15.77 49.09 16.07 48.89 16.07 48.89 16.28 49.09 16.28 49.09 16.58 48.89 16.58 48.89 16.79 49.09 16.79 49.09 17.09 48.89 17.09 48.89 17.3 49.09 17.3 49.09 17.6 48.89 17.6 48.89 17.81 49.09 17.81 49.09 18.11 48.89 18.11 48.89 18.32 49.09 18.32 49.09 18.62 48.89 18.62 48.89 18.83 49.09 18.83 49.09 19.13 48.89 19.13 48.89 19.34 49.09 19.34 49.09 19.64 48.89 19.64 48.89 19.85 49.09 19.85 49.09 20.16 48.89 20.16 48.89 20.36 49.09 20.36 49.09 20.67 48.89 20.67"/><polygon points="51.54 21.84 51.39 21.84 51.39 21.58 49.09 21.58 49.09 22.3 60.56 22.3 60.56 21.84 51.54 21.84"/></g></g><polygon points="37.92 15.34 37.92 15.16 37.37 15.16 37.37 15.34 36.08 15.34 36.08 22.82 38.58 22.82 38.58 15.34 37.92 15.34"/><polygon points="46.07 17.45 46.07 17.33 45.43 17.33 45.43 17.45 43.93 17.45 43.93 22.82 46.84 22.82 46.84 17.45 46.07 17.45"/><polygon points="56.2 14.74 56.2 13.24 55.23 13.24 55.23 13.93 54.07 13.93 53.84 12.77 53.61 12.77 54.59 22.82 56.86 22.82 56.86 14.74 56.2 14.74"/><g><g><path d="M77.14,18.95v.88l.83,.57v-.88l-.83-.57Z"/><path d="M77.09,18.95c-.28,.19-.56,.38-.84,.57v.88c.28-.19,.56-.38,.84-.57v-.88Z"/><polygon points="77.93 20.44 77.11 19.88 76.27 20.45 76.27 20.45 76.27 20.45 76.27 20.45 76.27 20.45 77.11 21.02 77.93 20.45 77.94 20.45 77.94 20.45 77.94 20.44 77.93 20.44"/></g><g><path d="M78.87,18.95v.88l.83,.57v-.88l-.83-.57Z"/><path d="M78.82,18.95c-.28,.19-.56,.38-.84,.57v.88c.28-.19,.56-.38,.84-.57v-.88Z"/><polygon points="79.66 20.44 78.84 19.88 78.01 20.45 78 20.45 78.01 20.45 78 20.45 78.01 20.45 78.84 21.02 79.66 20.45 79.68 20.45 79.67 20.45 79.68 20.44 79.66 20.44"/></g><g><path d="M80.6,18.95v.88l.83,.57v-.88l-.83-.57Z"/><path d="M80.55,18.95c-.28,.19-.56,.38-.84,.57v.88c.28-.19,.56-.38,.84-.57v-.88Z"/><polygon points="81.4 20.44 80.58 19.88 79.74 20.45 79.74 20.45 79.74 20.45 79.74 20.45 79.74 20.45 80.58 21.02 81.4 20.45 81.41 20.45 81.4 20.45 81.41 20.44 81.4 20.44"/></g><g><path d="M82.34,18.95v.88l.83,.57v-.88l-.83-.57Z"/><path d="M82.29,18.95c-.28,.19-.56,.38-.84,.57v.88c.28-.19,.56-.38,.84-.57v-.88Z"/><polygon points="83.13 20.44 82.31 19.88 81.48 20.45 81.47 20.45 81.47 20.45 81.47 20.45 81.48 20.45 82.31 21.02 83.13 20.45 83.15 20.45 83.14 20.45 83.15 20.44 83.13 20.44"/></g><g><path d="M84.07,18.95v.88l.83,.57v-.88l-.83-.57Z"/><path d="M84.02,18.95c-.28,.19-.56,.38-.84,.57v.88c.28-.19,.56-.38,.84-.57v-.88Z"/><polygon points="84.86 20.44 84.05 19.88 83.21 20.45 83.2 20.45 83.21 20.45 83.2 20.45 83.21 20.45 84.05 21.02 84.86 20.45 84.88 20.45 84.87 20.45 84.88 20.44 84.86 20.44"/></g><g><path d="M85.8,18.95v.88l.83,.57v-.88l-.83-.57Z"/><path d="M85.75,18.95c-.28,.19-.56,.38-.84,.57v.88c.28-.19,.56-.38,.84-.57v-.88Z"/><polygon points="86.6 20.44 85.78 19.88 84.94 20.45 84.94 20.45 84.94 20.45 84.94 20.45 84.94 20.45 85.78 21.02 86.6 20.45 86.61 20.45 86.61 20.45 86.61 20.44 86.6 20.44"/></g><polygon points="77.44 22.34 77.44 21.75 77.98 21.75 78.51 21.75 78.51 22.34 79.2 22.34 79.2 21.75 79.71 21.75 80.25 21.75 80.25 22.34 80.93 22.34 80.93 21.75 81.44 21.75 81.98 21.75 81.98 22.34 82.67 22.34 82.67 21.75 83.18 21.75 83.71 21.75 83.71 22.34 84.4 22.34 84.4 21.75 84.91 21.75 85.45 21.75 85.45 22.34 86.65 22.34 86.65 21.01 86.14 21.01 86.14 20.71 85.45 20.71 85.45 21.01 84.91 21.01 84.4 21.01 84.4 20.71 83.71 20.71 83.71 21.01 83.18 21.01 82.67 21.01 82.67 20.71 81.98 20.71 81.98 21.01 81.44 21.01 80.93 21.01 80.93 20.71 80.25 20.71 80.25 21.01 79.71 21.01 79.2 21.01 79.2 20.71 78.51 20.71 78.51 21.01 77.98 21.01 77.44 21.01 77.44 20.71 76.75 20.71 76.75 21.01 76.24 21.01 76.24 22.34 77.44 22.34"/></g><polygon points="64.92 4.22 64.92 2.95 64.53 2.95 64.53 1.67 64.33 1.67 64.33 1.47 63.74 1.47 63.74 0 63.64 0 63.64 1.47 63.05 1.47 63.05 1.67 62.86 1.67 62.86 2.95 62.46 2.95 62.46 4.22 61.88 4.22 61.88 22.3 63.64 22.3 63.74 22.3 65.51 22.3 65.51 4.22 64.92 4.22"/><path d="M42.46,10.18h-.45v-.6h.24v-.48h-.24V3.28h.04s.14-.07,.14-.14,0-.14,0-.14l-.06-.08v-.18s-.24,0-.24,0v-.84h-.06v.84h-.24v.18l-.06,.08s0,.07,0,.14,.15,.14,.15,.14h.03v5.82h-.24v.48h.24v.6h-.44l-.21,.39,.29,.14v.61h-.18v.12h-.71l-.21,.21,.36,.93h.75l.03,6.48h-.45v.36h-.36v.42h.78l-.03,2.82h1.11l-.03-2.82h.75v-.42h-.36v-.36h-.36v-6.48h.73l.35-.89-.21-.25h-.69v-.12h-.18v-.61l.24-.14-.21-.39Z"/><g><path d="M27.58,22.07c-7.66-.23-21.82-.06-27.56,.33l-.02-.25c5.74-.4,19.92-.57,27.58-.34v.25Z"/><path d="M35.36,22.95s-5.23-.45-6.35-.33l-.22,.67h-1.89l.35-1.12,.1-.32,2.12-6.35,.11-6.01,.22,.22,.11,5.68c-.38,1.72-1.27,4.77-1.67,6.46l7.24,.45-.11,.67Z"/><polygon points="1.46 22.2 1.41 22.08 29.66 10.31 29.7 10.42 1.46 22.2"/><polygon points="7.65 21.96 7.6 21.85 29.65 11.12 29.7 11.23 7.65 21.96"/><polygon points="12.33 21.97 12.28 21.86 29.54 12.16 29.6 12.26 12.33 21.97"/><polygon points="16.77 21.93 16.71 21.82 29.65 13.08 29.71 13.18 16.77 21.93"/><polygon points="20.94 21.93 20.87 21.83 29.53 14.24 29.61 14.33 20.94 21.93"/><polygon points="24.48 21.93 24.39 21.85 29.75 15.06 29.84 15.13 24.48 21.93"/><rect x="32.35" y="10.31" width=".12" height="12.8" transform="translate(-4.03 15.41) rotate(-25.23)"/><rect x="31.46" y="11.72" width=".12" height="11.09" transform="translate(-3.94 11.41) rotate(-19.34)"/></g><path class="cls-3" d="M92.98,22.44c-.03-3.43-.25-4.56-.25-4.56,0,0-.14-2.53-1.36-3.3s-2.4-.86-4.02-.99c-.49-.04-1.14-.05-1.81-.04h0c-.67,0-1.32,0-1.81,.05-1.63,.14-2.8,.23-4.02,.99s-1.36,3.3-1.36,3.3c0,0-.22,1.13-.25,4.56h3.62s-1.37-3.18,.29-6.13c.7-1.24,2.51-1.36,3.52-1.37h0c1.01,0,2.82,.12,3.52,1.37,1.66,2.95,.29,6.12,.29,6.12h3.62Z"/><path class="cls-3" d="M74.14,8.21v5.69h-.6v-5.69s-3.11,0-3.11,0v5.71h-.67v-5.71s-2.04,.02-3.21,.02v14.1h9.62V13.9h.63v-5.69h-2.65Zm-4.54,11.06h-.54v-5.35h.54v5.35Z"/><rect x="34.12" y="22.2" width="72.01" height="1.08"/><g><polygon points="92.04 22.1 91.99 21.88 91.82 21.35 88.97 21.35 88.79 21.88 88.75 22.1 88.75 22.45 102.78 22.45 102.77 22.21 102.65 22.01 102.48 21.96 101.91 21.92 101.91 22.14 92.04 22.14 92.04 22.1"/><path d="M102.87,18.5l-.57,3.47h.13l2.9-5.12c.19-.34-.16-.73-.52-.57l-11.07,4.94-.13,.57,9.26-3.29Z"/><polygon class="cls-4" points="94.41 21.48 94.41 21.61 94.41 22.23 100.59 22.14 102.3 22.18 102.87 18.5 94.41 21.48"/></g></g><g><polygon class="cls-2" points="118.38 22.2 124.97 22.2 124.97 11.5 125.74 11.5 125.74 11.37 126.38 11.37 126.38 11.5 127.87 11.5 127.87 22.2 128.37 22.2 128.37 16.51 131.89 16.51 131.89 22.2 133.86 22.2 133.86 18.12 138.66 18.12 138.66 21.3 127.92 21.3 135.45 21.3 141.68 21.3 141.68 19.03 144.33 19.03 144.33 20.85 149.2 20.85 149.2 20.58 162.34 20.58 162.34 20.29 162.96 20.29 162.96 21.7 164.19 21.7 164.19 20.57 167.69 20.57 167.69 21.93 168.69 21.93 168.69 21.3 171.47 21.3 171.47 21.86 172.19 21.86 172.19 20.57 173.32 20.57 173.32 21.36 175.35 21.36 175.35 22.06 175.35 23.15 106 22.87 106 22.2 106.52 22.2 106.52 15.97 109.11 15.97 109.15 21.93 118.38 22.2"/><g><rect x="159.82" y="6.12" width="1.33" height="5.05"/><g><polygon points="163.14 20.67 163.14 20.87 162.94 20.87 162.94 21.43 160.64 21.43 160.54 21.43 160.54 21.74 151.47 21.74 151.47 17.07 154.72 17.07 154.72 18.42 159.62 18.42 159.62 11.22 159.82 11.22 161.1 11.22 161.2 11.22 161.2 11.17 161.2 5.71 163.29 5.71 163.29 11.73 162.94 11.73 162.94 11.99 163.14 11.99 163.14 12.19 162.94 12.19 162.94 12.5 163.14 12.5 163.14 12.7 162.94 12.7 162.94 13.01 163.14 13.01 163.14 13.21 162.94 13.21 162.94 13.52 163.14 13.52 163.14 13.72 162.94 13.72 162.94 14.03 163.14 14.03 163.14 14.23 162.94 14.23 162.94 14.54 163.14 14.54 163.14 14.74 162.94 14.74 162.94 15.05 163.14 15.05 163.14 15.26 162.94 15.26 162.94 15.56 163.14 15.56 163.14 15.77 162.94 15.77 162.94 16.07 163.14 16.07 163.14 16.28 162.94 16.28 162.94 16.58 163.14 16.58 163.14 16.79 162.94 16.79 162.94 17.09 163.14 17.09 163.14 17.3 162.94 17.3 162.94 17.6 163.14 17.6 163.14 17.81 162.94 17.81 162.94 18.11 163.14 18.11 163.14 18.32 162.94 18.32 162.94 18.62 163.14 18.62 163.14 18.83 162.94 18.83 162.94 19.13 163.14 19.13 163.14 19.34 162.94 19.34 162.94 19.64 163.14 19.64 163.14 19.85 162.94 19.85 162.94 20.16 163.14 20.16 163.14 20.36 162.94 20.36 162.94 20.67 163.14 20.67"/><polygon points="160.49 21.84 160.64 21.84 160.64 21.58 162.94 21.58 162.94 22.3 151.47 22.3 151.47 21.84 160.49 21.84"/></g></g><polygon points="174.11 15.34 174.11 15.16 174.66 15.16 174.66 15.34 175.95 15.34 175.95 22.82 173.45 22.82 173.45 15.34 174.11 15.34"/><polygon points="165.96 17.45 165.96 17.33 166.6 17.33 166.6 17.45 168.1 17.45 168.1 22.82 165.19 22.82 165.19 17.45 165.96 17.45"/><polygon points="155.83 14.74 155.83 13.24 156.8 13.24 156.8 13.93 157.96 13.93 158.19 12.77 158.42 12.77 157.43 22.82 155.17 22.82 155.17 14.74 155.83 14.74"/><g><g><path d="M134.89,18.95v.88s-.83,.57-.83,.57v-.88s.83-.57,.83-.57Z"/><path d="M134.94,18.95c.28,.19,.56,.38,.84,.57v.88c-.28-.19-.56-.38-.84-.57v-.88Z"/><polygon points="134.1 20.44 134.92 19.88 135.75 20.45 135.76 20.45 135.76 20.45 135.76 20.45 135.75 20.45 134.92 21.02 134.1 20.45 134.08 20.45 134.09 20.45 134.08 20.44 134.1 20.44"/></g><g><path d="M133.16,18.95v.88s-.83,.57-.83,.57v-.88s.83-.57,.83-.57Z"/><path d="M133.21,18.95c.28,.19,.56,.38,.84,.57v.88c-.28-.19-.56-.38-.84-.57v-.88Z"/><polygon points="132.37 20.44 133.18 19.88 134.02 20.45 134.03 20.45 134.02 20.45 134.03 20.45 134.02 20.45 133.18 21.02 132.37 20.45 132.35 20.45 132.36 20.45 132.35 20.44 132.37 20.44"/></g><g><path d="M131.43,18.95v.88s-.83,.57-.83,.57v-.88s.83-.57,.83-.57Z"/><path d="M131.48,18.95c.28,.19,.56,.38,.84,.57v.88c-.28-.19-.56-.38-.84-.57v-.88Z"/><polygon points="130.63 20.44 131.45 19.88 132.29 20.45 132.29 20.45 132.29 20.45 132.29 20.45 132.29 20.45 131.45 21.02 130.63 20.45 130.62 20.45 130.62 20.45 130.62 20.44 130.63 20.44"/></g><g><path d="M129.69,18.95v.88s-.83,.57-.83,.57v-.88s.83-.57,.83-.57Z"/><path d="M129.74,18.95c.28,.19,.56,.38,.84,.57v.88c-.28-.19-.56-.38-.84-.57v-.88Z"/><polygon points="128.9 20.44 129.72 19.88 130.55 20.45 130.56 20.45 130.56 20.45 130.56 20.45 130.55 20.45 129.72 21.02 128.9 20.45 128.88 20.45 128.89 20.45 128.88 20.44 128.9 20.44"/></g><g><path d="M127.96,18.95v.88s-.83,.57-.83,.57v-.88s.83-.57,.83-.57Z"/><path d="M128.01,18.95c.28,.19,.56,.38,.84,.57v.88c-.28-.19-.56-.38-.84-.57v-.88Z"/><polygon points="127.16 20.44 127.98 19.88 128.82 20.45 128.83 20.45 128.82 20.45 128.83 20.45 128.82 20.45 127.98 21.02 127.16 20.45 127.15 20.45 127.16 20.45 127.15 20.44 127.16 20.44"/></g><g><path d="M126.22,18.95v.88s-.83,.57-.83,.57v-.88s.83-.57,.83-.57Z"/><path d="M126.28,18.95c.28,.19,.56,.38,.84,.57v.88c-.28-.19-.56-.38-.84-.57v-.88Z"/><polygon points="125.43 20.44 126.25 19.88 127.09 20.45 127.09 20.45 127.09 20.45 127.09 20.45 127.09 20.45 126.25 21.02 125.43 20.45 125.42 20.45 125.42 20.45 125.42 20.44 125.43 20.44"/></g><polygon points="134.59 22.34 134.59 21.75 134.05 21.75 133.52 21.75 133.52 22.34 132.83 22.34 132.83 21.75 132.32 21.75 131.78 21.75 131.78 22.34 131.09 22.34 131.09 21.75 130.58 21.75 130.05 21.75 130.05 22.34 129.36 22.34 129.36 21.75 128.85 21.75 128.32 21.75 128.32 22.34 127.63 22.34 127.63 21.75 127.12 21.75 126.58 21.75 126.58 22.34 125.38 22.34 125.38 21.01 125.89 21.01 125.89 20.71 126.58 20.71 126.58 21.01 127.12 21.01 127.63 21.01 127.63 20.71 128.32 20.71 128.32 21.01 128.85 21.01 129.36 21.01 129.36 20.71 130.05 20.71 130.05 21.01 130.58 21.01 131.09 21.01 131.09 20.71 131.78 20.71 131.78 21.01 132.32 21.01 132.83 21.01 132.83 20.71 133.52 20.71 133.52 21.01 134.05 21.01 134.59 21.01 134.59 20.71 135.27 20.71 135.27 21.01 135.78 21.01 135.78 22.34 134.59 22.34"/></g><polygon points="147.11 4.22 147.11 2.95 147.5 2.95 147.5 1.67 147.7 1.67 147.7 1.47 148.29 1.47 148.29 0 148.39 0 148.39 1.47 148.97 1.47 148.97 1.67 149.17 1.67 149.17 2.95 149.56 2.95 149.56 4.22 150.15 4.22 150.15 22.3 148.39 22.3 148.29 22.3 146.52 22.3 146.52 4.22 147.11 4.22"/><path d="M169.57,10.18h.45s0-.6,0-.6h-.24v-.48h.24s0-5.82,0-5.82h-.04s-.14-.07-.14-.14c0-.07,0-.14,0-.14l.06-.08v-.18s.24,0,.24,0v-.84h.02s0,0,0,0h.04v.84s.24,0,.24,0v.18s.06,.08,.06,.08c0,0,0,.07,0,.14,0,.07-.15,.14-.15,.14h-.03s0,5.82,0,5.82h.24v.48h-.24s0,.6,0,.6h.44l.21,.39-.29,.14v.61s.18,0,.18,0v.12s.71,0,.71,0l.21,.21-.36,.93h-.75s-.03,6.48-.03,6.48h.45v.36s.36,0,.36,0v.42h-.78s.03,2.82,.03,2.82h-.59s-.52,0-.52,0l.03-2.82h-.75v-.42h.36s0-.36,0-.36h.36s0-6.48,0-6.48h-.73s-.35-.89-.35-.89l.21-.25h.69s0-.12,0-.12h.18s0-.61,0-.61l-.24-.14,.21-.39Z"/><g><path d="M184.45,22.07c7.66-.23,21.82-.06,27.56,.33l.02-.25c-5.74-.4-19.92-.57-27.58-.34v.25Z"/><path d="M176.67,22.95s5.23-.45,6.35-.33l.22,.67h1.89s-.35-1.12-.35-1.12l-.1-.32-2.12-6.35-.11-6.01-.22,.22-.11,5.68c.38,1.72,1.27,4.77,1.67,6.46l-7.24,.45,.11,.67Z"/><polygon points="210.57 22.2 210.61 22.08 182.37 10.31 182.33 10.42 210.57 22.2"/><polygon points="204.37 21.96 204.43 21.85 182.38 11.12 182.32 11.23 204.37 21.96"/><polygon points="199.69 21.97 199.75 21.86 182.49 12.16 182.43 12.26 199.69 21.97"/><polygon points="195.26 21.93 195.32 21.82 182.38 13.08 182.32 13.18 195.26 21.93"/><polygon points="191.09 21.93 191.16 21.83 182.5 14.24 182.42 14.33 191.09 21.93"/><polygon points="187.55 21.93 187.64 21.85 182.28 15.06 182.19 15.13 187.55 21.93"/><rect x="173.22" y="16.65" width="12.8" height=".12" transform="translate(87.95 172.08) rotate(-64.77)"/><rect x="174.96" y="17.21" width="11.09" height=".12" transform="translate(104.43 181.87) rotate(-70.66)"/></g><path class="cls-3" d="M119.05,22.44c.03-3.43,.25-4.56,.25-4.56,0,0,.14-2.53,1.36-3.3s2.4-.86,4.02-.99c.49-.04,1.14-.05,1.81-.04h0c.67,0,1.32,0,1.81,.05,1.63,.14,2.8,.23,4.02,.99s1.36,3.3,1.36,3.3c0,0,.22,1.13,.25,4.56h-3.62s1.37-3.18-.29-6.13c-.7-1.24-2.51-1.36-3.52-1.37h0c-1.01,0-2.82,.12-3.52,1.37-1.66,2.95-.29,6.12-.29,6.12h-3.62Z"/><path class="cls-3" d="M135.24,8.21v5.69s.63,0,.63,0v8.42s9.62,0,9.62,0c0,0,0-13.56,0-14.1-1.17,0-3.21-.02-3.21-.02v5.71h-.67v-5.71s-3.12,0-3.12,0v5.69s-.6,0-.6,0v-5.69s-2.65,0-2.65,0Zm7.19,5.71h.54v5.35h-.54v-5.35Z"/><rect x="105.9" y="22.2" width="72.01" height="1.08" transform="translate(283.82 45.48) rotate(-180)"/><g><polygon points="119.99 22.1 120.04 21.88 120.21 21.35 123.06 21.35 123.24 21.88 123.28 22.1 123.28 22.45 109.24 22.45 109.26 22.21 109.38 22.01 109.55 21.96 110.12 21.92 110.12 22.14 119.99 22.14 119.99 22.1"/><path d="M109.16,18.5l.57,3.47h-.13s-2.9-5.12-2.9-5.12c-.19-.34,.16-.73,.52-.57l11.07,4.94,.13,.57-9.26-3.29Z"/><polygon class="cls-4" points="117.62 21.48 117.62 21.61 117.62 22.23 111.44 22.14 109.73 22.18 109.16 18.5 117.62 21.48"/></g></g><g><polygon class="cls-2" points="330.38 22.2 336.97 22.2 336.97 11.5 337.74 11.5 337.74 11.37 338.38 11.37 338.38 11.5 339.87 11.5 339.87 22.2 340.37 22.2 340.37 16.51 343.89 16.51 343.89 22.2 345.86 22.2 345.86 18.12 350.66 18.12 350.66 21.3 339.92 21.3 347.45 21.3 353.68 21.3 353.68 19.03 356.33 19.03 356.33 20.85 361.2 20.85 361.2 20.58 374.34 20.58 374.34 20.29 374.96 20.29 374.96 21.7 376.19 21.7 376.19 20.57 379.69 20.57 379.69 21.93 380.69 21.93 380.69 21.3 383.47 21.3 383.47 21.86 384.19 21.86 384.19 20.57 385.32 20.57 385.32 21.36 387.35 21.36 387.35 22.06 387.35 23.15 318 22.87 318 22.2 318.52 22.2 318.52 15.97 321.11 15.97 321.15 21.93 330.38 22.2"/><polygon class="cls-1" points="424.02 23.01 412.75 22.87 412.75 20.58 417.56 20.58 417.56 21.93 419.35 21.93 419.35 18.99 421.2 18.99 421.2 22.2 424.02 22.2 424.02 23.01"/><g><rect x="371.82" y="6.12" width="1.33" height="5.05"/><g><polygon points="375.14 20.67 375.14 20.87 374.94 20.87 374.94 21.43 372.64 21.43 372.54 21.43 372.54 21.74 363.47 21.74 363.47 17.07 366.72 17.07 366.72 18.42 371.62 18.42 371.62 11.22 371.82 11.22 373.1 11.22 373.2 11.22 373.2 11.17 373.2 5.71 375.29 5.71 375.29 11.73 374.94 11.73 374.94 11.99 375.14 11.99 375.14 12.19 374.94 12.19 374.94 12.5 375.14 12.5 375.14 12.7 374.94 12.7 374.94 13.01 375.14 13.01 375.14 13.21 374.94 13.21 374.94 13.52 375.14 13.52 375.14 13.72 374.94 13.72 374.94 14.03 375.14 14.03 375.14 14.23 374.94 14.23 374.94 14.54 375.14 14.54 375.14 14.74 374.94 14.74 374.94 15.05 375.14 15.05 375.14 15.26 374.94 15.26 374.94 15.56 375.14 15.56 375.14 15.77 374.94 15.77 374.94 16.07 375.14 16.07 375.14 16.28 374.94 16.28 374.94 16.58 375.14 16.58 375.14 16.79 374.94 16.79 374.94 17.09 375.14 17.09 375.14 17.3 374.94 17.3 374.94 17.6 375.14 17.6 375.14 17.81 374.94 17.81 374.94 18.11 375.14 18.11 375.14 18.32 374.94 18.32 374.94 18.62 375.14 18.62 375.14 18.83 374.94 18.83 374.94 19.13 375.14 19.13 375.14 19.34 374.94 19.34 374.94 19.64 375.14 19.64 375.14 19.85 374.94 19.85 374.94 20.16 375.14 20.16 375.14 20.36 374.94 20.36 374.94 20.67 375.14 20.67"/><polygon points="372.49 21.84 372.64 21.84 372.64 21.58 374.94 21.58 374.94 22.3 363.47 22.3 363.47 21.84 372.49 21.84"/></g></g><polygon points="386.11 15.34 386.11 15.16 386.66 15.16 386.66 15.34 387.95 15.34 387.95 22.82 385.45 22.82 385.45 15.34 386.11 15.34"/><polygon points="377.96 17.45 377.96 17.33 378.6 17.33 378.6 17.45 380.1 17.45 380.1 22.82 377.19 22.82 377.19 17.45 377.96 17.45"/><polygon points="367.83 14.74 367.83 13.24 368.8 13.24 368.8 13.93 369.96 13.93 370.19 12.77 370.42 12.77 369.43 22.82 367.17 22.82 367.17 14.74 367.83 14.74"/><g><g><path d="M346.89,18.95v.88s-.83,.57-.83,.57v-.88s.83-.57,.83-.57Z"/><path d="M346.94,18.95c.28,.19,.56,.38,.84,.57v.88c-.28-.19-.56-.38-.84-.57v-.88Z"/><polygon points="346.1 20.44 346.92 19.88 347.75 20.45 347.76 20.45 347.76 20.45 347.76 20.45 347.75 20.45 346.92 21.02 346.1 20.45 346.08 20.45 346.09 20.45 346.08 20.44 346.1 20.44"/></g><g><path d="M345.16,18.95v.88s-.83,.57-.83,.57v-.88s.83-.57,.83-.57Z"/><path d="M345.21,18.95c.28,.19,.56,.38,.84,.57v.88c-.28-.19-.56-.38-.84-.57v-.88Z"/><polygon points="344.37 20.44 345.18 19.88 346.02 20.45 346.03 20.45 346.02 20.45 346.03 20.45 346.02 20.45 345.18 21.02 344.37 20.45 344.35 20.45 344.36 20.45 344.35 20.44 344.37 20.44"/></g><g><path d="M343.43,18.95v.88s-.83,.57-.83,.57v-.88s.83-.57,.83-.57Z"/><path d="M343.48,18.95c.28,.19,.56,.38,.84,.57v.88c-.28-.19-.56-.38-.84-.57v-.88Z"/><polygon points="342.63 20.44 343.45 19.88 344.29 20.45 344.29 20.45 344.29 20.45 344.29 20.45 344.29 20.45 343.45 21.02 342.63 20.45 342.62 20.45 342.62 20.45 342.62 20.44 342.63 20.44"/></g><g><path d="M341.69,18.95v.88s-.83,.57-.83,.57v-.88s.83-.57,.83-.57Z"/><path d="M341.74,18.95c.28,.19,.56,.38,.84,.57v.88c-.28-.19-.56-.38-.84-.57v-.88Z"/><polygon points="340.9 20.44 341.72 19.88 342.55 20.45 342.56 20.45 342.56 20.45 342.56 20.45 342.55 20.45 341.72 21.02 340.9 20.45 340.88 20.45 340.89 20.45 340.88 20.44 340.9 20.44"/></g><g><path d="M339.96,18.95v.88s-.83,.57-.83,.57v-.88s.83-.57,.83-.57Z"/><path d="M340.01,18.95c.28,.19,.56,.38,.84,.57v.88c-.28-.19-.56-.38-.84-.57v-.88Z"/><polygon points="339.16 20.44 339.98 19.88 340.82 20.45 340.83 20.45 340.82 20.45 340.83 20.45 340.82 20.45 339.98 21.02 339.16 20.45 339.15 20.45 339.16 20.45 339.15 20.44 339.16 20.44"/></g><g><path d="M338.22,18.95v.88s-.83,.57-.83,.57v-.88s.83-.57,.83-.57Z"/><path d="M338.28,18.95c.28,.19,.56,.38,.84,.57v.88c-.28-.19-.56-.38-.84-.57v-.88Z"/><polygon points="337.43 20.44 338.25 19.88 339.09 20.45 339.09 20.45 339.09 20.45 339.09 20.45 339.09 20.45 338.25 21.02 337.43 20.45 337.42 20.45 337.42 20.45 337.42 20.44 337.43 20.44"/></g><polygon points="346.59 22.34 346.59 21.75 346.05 21.75 345.52 21.75 345.52 22.34 344.83 22.34 344.83 21.75 344.32 21.75 343.78 21.75 343.78 22.34 343.09 22.34 343.09 21.75 342.58 21.75 342.05 21.75 342.05 22.34 341.36 22.34 341.36 21.75 340.85 21.75 340.32 21.75 340.32 22.34 339.63 22.34 339.63 21.75 339.12 21.75 338.58 21.75 338.58 22.34 337.38 22.34 337.38 21.01 337.89 21.01 337.89 20.71 338.58 20.71 338.58 21.01 339.12 21.01 339.63 21.01 339.63 20.71 340.32 20.71 340.32 21.01 340.85 21.01 341.36 21.01 341.36 20.71 342.05 20.71 342.05 21.01 342.58 21.01 343.09 21.01 343.09 20.71 343.78 20.71 343.78 21.01 344.32 21.01 344.83 21.01 344.83 20.71 345.52 20.71 345.52 21.01 346.05 21.01 346.59 21.01 346.59 20.71 347.27 20.71 347.27 21.01 347.78 21.01 347.78 22.34 346.59 22.34"/></g><polygon points="359.11 4.22 359.11 2.95 359.5 2.95 359.5 1.67 359.7 1.67 359.7 1.47 360.29 1.47 360.29 0 360.39 0 360.39 1.47 360.97 1.47 360.97 1.67 361.17 1.67 361.17 2.95 361.56 2.95 361.56 4.22 362.15 4.22 362.15 22.3 360.39 22.3 360.29 22.3 358.52 22.3 358.52 4.22 359.11 4.22"/><path d="M381.57,10.18h.45s0-.6,0-.6h-.24v-.48h.24s0-5.82,0-5.82h-.04s-.14-.07-.14-.14c0-.07,0-.14,0-.14l.06-.08v-.18s.24,0,.24,0v-.84h.06v.84s.24,0,.24,0v.18s.06,.08,.06,.08c0,0,0,.07,0,.14,0,.07-.15,.14-.15,.14h-.03s0,5.82,0,5.82h.24v.48h-.24s0,.6,0,.6h.44l.21,.39-.29,.14v.61s.18,0,.18,0v.12s.71,0,.71,0l.21,.21-.36,.93h-.75s-.03,6.48-.03,6.48h.45v.36s.36,0,.36,0v.42h-.78s.03,2.82,.03,2.82h-.59s-.52,0-.52,0l.03-2.82h-.75v-.42h.36s0-.36,0-.36h.36s0-6.48,0-6.48h-.73s-.35-.89-.35-.89l.21-.25h.69s0-.12,0-.12h.18s0-.61,0-.61l-.24-.14,.21-.39Z"/><g><path d="M396.45,22.07c7.66-.23,21.82-.06,27.56,.33l.02-.25c-5.74-.4-19.92-.57-27.58-.34v.25Z"/><path d="M388.67,22.95s5.23-.45,6.35-.33l.22,.67h1.89s-.35-1.12-.35-1.12l-.1-.32-2.12-6.35-.11-6.01-.22,.22-.11,5.68c.38,1.72,1.27,4.77,1.67,6.46l-7.24,.45,.11,.67Z"/><polygon points="422.57 22.2 422.61 22.08 394.37 10.31 394.33 10.42 422.57 22.2"/><polygon points="416.37 21.96 416.43 21.85 394.38 11.12 394.32 11.23 416.37 21.96"/><polygon points="411.69 21.97 411.75 21.86 394.49 12.16 394.43 12.26 411.69 21.97"/><polygon points="407.26 21.93 407.32 21.82 394.38 13.08 394.32 13.18 407.26 21.93"/><polygon points="403.09 21.93 403.16 21.83 394.5 14.24 394.42 14.33 403.09 21.93"/><polygon points="399.55 21.93 399.64 21.85 394.28 15.06 394.19 15.13 399.55 21.93"/><rect x="385.22" y="16.65" width="12.8" height=".12" transform="translate(209.59 363.86) rotate(-64.77)"/><rect x="386.96" y="17.21" width="11.09" height=".12" transform="translate(246.2 381.9) rotate(-70.66)"/></g><path class="cls-3" d="M331.05,22.44c.03-3.43,.25-4.56,.25-4.56,0,0,.14-2.53,1.36-3.3s2.4-.86,4.02-.99c.49-.04,1.14-.05,1.81-.04h0c.67,0,1.32,0,1.81,.05,1.63,.14,2.8,.23,4.02,.99s1.36,3.3,1.36,3.3c0,0,.22,1.13,.25,4.56h-3.62s1.37-3.18-.29-6.13c-.7-1.24-2.51-1.36-3.52-1.37h0c-1.01,0-2.82,.12-3.52,1.37-1.66,2.95-.29,6.12-.29,6.12h-3.62Z"/><path class="cls-3" d="M347.24,8.21v5.69s.63,0,.63,0v8.42s9.62,0,9.62,0V8.23c-1.17,0-3.21-.02-3.21-.02v5.71h-.67v-5.71s-3.12,0-3.12,0v5.69s-.6,0-.6,0v-5.69s-2.65,0-2.65,0Zm7.19,5.71h.54v5.35h-.54v-5.35Z"/><rect x="317.9" y="22.2" width="72.01" height="1.08" transform="translate(707.82 45.48) rotate(-180)"/><g><polygon points="331.99 22.1 332.04 21.88 332.21 21.35 335.06 21.35 335.24 21.88 335.28 22.1 335.28 22.45 321.24 22.45 321.26 22.21 321.38 22.01 321.55 21.96 322.12 21.92 322.12 22.14 331.99 22.14 331.99 22.1"/><path d="M321.16,18.5l.57,3.47h-.13s-2.9-5.12-2.9-5.12c-.19-.34,.16-.73,.52-.57l11.07,4.94,.13,.57-9.26-3.29Z"/><polygon class="cls-4" points="329.62 21.48 329.62 21.61 329.62 22.23 323.44 22.14 321.73 22.18 321.16 18.5 329.62 21.48"/></g></g><g><polygon class="cls-2" points="305.65 22.2 299.06 22.2 299.06 11.5 298.29 11.5 298.29 11.37 297.65 11.37 297.65 11.5 296.15 11.5 296.15 22.2 295.66 22.2 295.66 16.51 292.14 16.51 292.14 22.2 290.17 22.2 290.17 18.12 285.37 18.12 285.37 21.3 296.11 21.3 288.58 21.3 282.35 21.3 282.35 19.03 279.7 19.03 279.7 20.85 274.83 20.85 274.83 20.58 261.69 20.58 261.69 20.29 261.07 20.29 261.07 21.7 259.84 21.7 259.84 20.57 256.34 20.57 256.34 21.93 255.34 21.93 255.34 21.3 252.56 21.3 252.56 21.86 251.84 21.86 251.84 20.57 250.71 20.57 250.71 21.36 248.67 21.36 248.67 22.06 248.67 23.15 318.03 22.87 318.03 22.2 317.5 22.2 317.51 15.97 314.92 15.97 314.88 21.93 305.65 22.2"/><g><rect x="262.88" y="6.12" width="1.33" height="5.05"/><g><polygon points="260.89 20.67 260.89 20.87 261.09 20.87 261.09 21.43 263.39 21.43 263.49 21.43 263.49 21.74 272.56 21.74 272.56 17.07 269.31 17.07 269.31 18.42 264.41 18.42 264.41 11.22 264.21 11.22 262.93 11.22 262.83 11.22 262.83 11.17 262.83 5.71 260.73 5.71 260.73 11.73 261.09 11.73 261.09 11.99 260.89 11.99 260.89 12.19 261.09 12.19 261.09 12.5 260.89 12.5 260.89 12.7 261.09 12.7 261.09 13.01 260.89 13.01 260.89 13.21 261.09 13.21 261.09 13.52 260.89 13.52 260.89 13.72 261.09 13.72 261.09 14.03 260.89 14.03 260.89 14.23 261.09 14.23 261.09 14.54 260.89 14.54 260.89 14.74 261.09 14.74 261.09 15.05 260.89 15.05 260.89 15.26 261.09 15.26 261.09 15.56 260.89 15.56 260.89 15.77 261.09 15.77 261.09 16.07 260.89 16.07 260.89 16.28 261.09 16.28 261.09 16.58 260.89 16.58 260.89 16.79 261.09 16.79 261.09 17.09 260.89 17.09 260.89 17.3 261.09 17.3 261.09 17.6 260.89 17.6 260.89 17.81 261.09 17.81 261.09 18.11 260.89 18.11 260.89 18.32 261.09 18.32 261.09 18.62 260.89 18.62 260.89 18.83 261.09 18.83 261.09 19.13 260.89 19.13 260.89 19.34 261.09 19.34 261.09 19.64 260.89 19.64 260.89 19.85 261.09 19.85 261.09 20.16 260.89 20.16 260.89 20.36 261.09 20.36 261.09 20.67 260.89 20.67"/><polygon points="263.54 21.84 263.39 21.84 263.39 21.58 261.09 21.58 261.09 22.3 272.56 22.3 272.56 21.84 263.54 21.84"/></g></g><polygon points="249.92 15.34 249.92 15.16 249.37 15.16 249.37 15.34 248.08 15.34 248.08 22.82 250.58 22.82 250.58 15.34 249.92 15.34"/><polygon points="258.07 17.45 258.07 17.33 257.43 17.33 257.43 17.45 255.93 17.45 255.93 22.82 258.84 22.82 258.84 17.45 258.07 17.45"/><polygon points="268.2 14.74 268.2 13.24 267.23 13.24 267.23 13.93 266.07 13.93 265.84 12.77 265.61 12.77 266.59 22.82 268.86 22.82 268.86 14.74 268.2 14.74"/><g><g><path d="M289.14,18.95v.88l.83,.57v-.88s-.83-.57-.83-.57Z"/><path d="M289.09,18.95c-.28,.19-.56,.38-.84,.57v.88c.28-.19,.56-.38,.84-.57v-.88Z"/><polygon points="289.93 20.44 289.11 19.88 288.27 20.45 288.27 20.45 288.27 20.45 288.27 20.45 288.27 20.45 289.11 21.02 289.93 20.45 289.94 20.45 289.94 20.45 289.94 20.44 289.93 20.44"/></g><g><path d="M290.87,18.95v.88l.83,.57v-.88l-.83-.57Z"/><path d="M290.82,18.95c-.28,.19-.56,.38-.84,.57v.88c.28-.19,.56-.38,.84-.57v-.88Z"/><polygon points="291.66 20.44 290.84 19.88 290.01 20.45 290 20.45 290.01 20.45 290 20.45 290.01 20.45 290.84 21.02 291.66 20.45 291.68 20.45 291.67 20.45 291.68 20.44 291.66 20.44"/></g><g><path d="M292.6,18.95v.88l.83,.57v-.88l-.83-.57Z"/><path d="M292.55,18.95c-.28,.19-.56,.38-.84,.57v.88c.28-.19,.56-.38,.84-.57v-.88Z"/><polygon points="293.4 20.44 292.58 19.88 291.74 20.45 291.74 20.45 291.74 20.45 291.74 20.45 291.74 20.45 292.58 21.02 293.4 20.45 293.41 20.45 293.4 20.45 293.41 20.44 293.4 20.44"/></g><g><path d="M294.34,18.95v.88l.83,.57v-.88l-.83-.57Z"/><path d="M294.29,18.95c-.28,.19-.56,.38-.84,.57v.88c.28-.19,.56-.38,.84-.57v-.88Z"/><polygon points="295.13 20.44 294.31 19.88 293.48 20.45 293.47 20.45 293.47 20.45 293.47 20.45 293.48 20.45 294.31 21.02 295.13 20.45 295.15 20.45 295.14 20.45 295.15 20.44 295.13 20.44"/></g><g><path d="M296.07,18.95v.88s.83,.57,.83,.57v-.88s-.83-.57-.83-.57Z"/><path d="M296.02,18.95c-.28,.19-.56,.38-.84,.57v.88c.28-.19,.56-.38,.84-.57v-.88Z"/><polygon points="296.86 20.44 296.05 19.88 295.21 20.45 295.2 20.45 295.21 20.45 295.2 20.45 295.21 20.45 296.05 21.02 296.86 20.45 296.88 20.45 296.87 20.45 296.88 20.44 296.86 20.44"/></g><g><path d="M297.8,18.95v.88l.83,.57v-.88s-.83-.57-.83-.57Z"/><path d="M297.75,18.95c-.28,.19-.56,.38-.84,.57v.88c.28-.19,.56-.38,.84-.57v-.88Z"/><polygon points="298.6 20.44 297.78 19.88 296.94 20.45 296.94 20.45 296.94 20.45 296.94 20.45 296.94 20.45 297.78 21.02 298.6 20.45 298.61 20.45 298.61 20.45 298.61 20.44 298.6 20.44"/></g><polygon points="289.44 22.34 289.44 21.75 289.98 21.75 290.51 21.75 290.51 22.34 291.2 22.34 291.2 21.75 291.71 21.75 292.25 21.75 292.25 22.34 292.93 22.34 292.93 21.75 293.44 21.75 293.98 21.75 293.98 22.34 294.67 22.34 294.67 21.75 295.18 21.75 295.71 21.75 295.71 22.34 296.4 22.34 296.4 21.75 296.91 21.75 297.45 21.75 297.45 22.34 298.65 22.34 298.65 21.01 298.14 21.01 298.14 20.71 297.45 20.71 297.45 21.01 296.91 21.01 296.4 21.01 296.4 20.71 295.71 20.71 295.71 21.01 295.18 21.01 294.67 21.01 294.67 20.71 293.98 20.71 293.98 21.01 293.44 21.01 292.93 21.01 292.93 20.71 292.25 20.71 292.25 21.01 291.71 21.01 291.2 21.01 291.2 20.71 290.51 20.71 290.51 21.01 289.98 21.01 289.44 21.01 289.44 20.71 288.75 20.71 288.75 21.01 288.24 21.01 288.24 22.34 289.44 22.34"/></g><polygon points="276.92 4.22 276.92 2.95 276.53 2.95 276.53 1.67 276.33 1.67 276.33 1.47 275.74 1.47 275.74 0 275.64 0 275.64 1.47 275.05 1.47 275.05 1.67 274.86 1.67 274.86 2.95 274.46 2.95 274.46 4.22 273.88 4.22 273.88 22.3 275.64 22.3 275.74 22.3 277.51 22.3 277.51 4.22 276.92 4.22"/><path d="M254.46,10.18h-.45v-.6h.24v-.48s-.24,0-.24,0V3.28h.04s.14-.07,.14-.14,0-.14,0-.14l-.06-.08v-.18s-.24,0-.24,0v-.84h-.06s0,.84,0,.84h-.24v.18s-.06,.08-.06,.08c0,0,0,.07,0,.14,0,.07,.15,.14,.15,.14h.03v5.82h-.24v.48h.24v.6h-.44l-.21,.39,.29,.14v.61h-.18v.12s-.71,0-.71,0l-.21,.21,.36,.93h.75l.03,6.48h-.45v.36h-.36s0,.42,0,.42h.78l-.03,2.82h1.11l-.03-2.82h.75v-.42h-.36v-.36h-.36v-6.48h.73l.35-.89-.21-.25h-.69v-.12s-.18,0-.18,0v-.61l.24-.14-.21-.39Z"/><g><path d="M239.58,22.07c-7.66-.23-21.82-.06-27.56,.33l-.02-.25c5.74-.4,19.92-.57,27.58-.34v.25Z"/><path d="M247.36,22.95s-5.23-.45-6.35-.33l-.22,.67h-1.89l.35-1.12,.1-.32,2.12-6.35,.11-6.01,.22,.22,.11,5.68c-.38,1.72-1.27,4.77-1.67,6.46l7.24,.45-.11,.67Z"/><polygon points="213.46 22.2 213.41 22.08 241.66 10.31 241.7 10.42 213.46 22.2"/><polygon points="219.65 21.96 219.6 21.85 241.65 11.12 241.7 11.23 219.65 21.96"/><polygon points="224.33 21.97 224.28 21.86 241.54 12.16 241.6 12.26 224.33 21.97"/><polygon points="228.77 21.93 228.71 21.82 241.65 13.08 241.71 13.18 228.77 21.93"/><polygon points="232.94 21.93 232.87 21.83 241.53 14.24 241.61 14.33 232.94 21.93"/><polygon points="236.48 21.93 236.39 21.85 241.75 15.06 241.84 15.13 236.48 21.93"/><rect x="244.35" y="10.31" width=".12" height="12.8" transform="translate(16.19 105.76) rotate(-25.23)"/><rect x="243.46" y="11.72" width=".12" height="11.09" transform="translate(8.03 81.64) rotate(-19.34)"/></g><path class="cls-3" d="M304.98,22.44c-.03-3.43-.25-4.56-.25-4.56,0,0-.14-2.53-1.36-3.3s-2.4-.86-4.02-.99c-.49-.04-1.14-.05-1.81-.04h0c-.67,0-1.32,0-1.81,.05-1.63,.14-2.8,.23-4.02,.99s-1.36,3.3-1.36,3.3c0,0-.22,1.13-.25,4.56h3.62s-1.37-3.18,.29-6.13c.7-1.24,2.51-1.36,3.52-1.37h0c1.01,0,2.82,.12,3.52,1.37,1.66,2.95,.29,6.12,.29,6.12h3.62Z"/><path class="cls-3" d="M286.14,8.21v5.69h-.6s0-5.69,0-5.69h-3.12s0,5.71,0,5.71h-.67v-5.71s-2.04,.02-3.21,.02c0,.54,0,14.1,0,14.1h9.62V13.9s.63,0,.63,0v-5.69s-2.65,0-2.65,0Zm-4.54,11.06h-.54s0-5.35,0-5.35h.54s0,5.35,0,5.35Z"/><rect x="246.12" y="22.2" width="72.01" height="1.08"/><g><polygon points="304.04 22.1 303.99 21.88 303.82 21.35 300.97 21.35 300.79 21.88 300.75 22.1 300.75 22.45 314.78 22.45 314.77 22.21 314.65 22.01 314.48 21.96 313.91 21.92 313.91 22.14 304.04 22.14 304.04 22.1"/><path d="M314.87,18.5l-.57,3.47h.13l2.9-5.12c.19-.34-.16-.73-.52-.57l-11.07,4.94-.13,.57,9.26-3.29Z"/><polygon class="cls-4" points="306.41 21.48 306.41 21.61 306.41 22.23 312.59 22.14 314.3 22.18 314.87 18.5 306.41 21.48"/></g></g></g></svg>